<svg xmlns="http://www.w3.org/2000/svg" viewBox="0 0 128 160" x="0px" y="0px"><title>no, group, crowded, people, outside, prohibited</title><path d="M46.545,99.06a3.25,3.25,0,0,0,3.27,3.26,3.261,3.261,0,0,0,3.25-3.26V87.5a.5.5,0,0,1,1,0V99.06a3.252,3.252,0,0,0,3.25,3.26h.02a3.252,3.252,0,0,0,3.25-3.26l.01-20.69L46.545,92.42Z"/><path d="M63.959,40.552a7.021,7.021,0,1,0-7.021-7.02A7.02,7.02,0,0,0,63.959,40.552Z"/><path d="M96.625,60.76v4.6a3.234,3.234,0,0,1-1.69,2.84.5.5,0,0,1-.72-.45V58.83a.5.5,0,0,0-.5-.5.5.5,0,0,0-.5.5l-.01,22.86a3.267,3.267,0,0,1-3.91,3.2,3.351,3.351,0,0,1-2.61-3.32V70.13a.5.5,0,0,0-1,0v.81a.5.5,0,0,1-.95.21,10.373,10.373,0,0,0-5.38-4.8,9,9,0,0,0,4.1-7.55A8.835,8.835,0,0,0,83,55.97l5.41-5.41A10.436,10.436,0,0,1,96.625,60.76Z"/><circle cx="41.81" cy="41.428" r="7.021"/><circle cx="53.57" cy="58.729" r="7.021"/><path d="M74.441,67.695a10.274,10.274,0,0,0-3.93.77l-8.91,8.91v7.75a.505.505,0,0,0,.72.46,3.265,3.265,0,0,0,1.7-2.6,3.231,3.231,0,0,0,1.667,2.6.5.5,0,0,0,.72-.46v-8.92a.5.5,0,0,1,.5-.5.5.5,0,0,1,.5.5l.01,22.86a3.256,3.256,0,0,0,3.27,3.26,3.261,3.261,0,0,0,3.25-3.26V87.505a.5.5,0,0,1,1,0v11.56a3.261,3.261,0,0,0,3.26,3.26h.02a3.258,3.258,0,0,0,3.25-3.26V76.205a.5.5,0,0,1,.5-.5.5.5,0,0,1,.5.5v8.92a.511.511,0,0,0,.73.46,3.249,3.249,0,0,0,1.68-2.85v-4.6a10.392,10.392,0,0,0-6.014-9.448A11.452,11.452,0,0,0,74.441,67.695Z"/><path d="M81.455,58.8a5.759,5.759,0,0,0-.11-1.18l-8.09,8.09a5.759,5.759,0,0,0,1.18.11A7.016,7.016,0,0,0,81.455,58.8Z"/><path d="M63.335,7.89A58.36,58.36,0,1,0,121.7,66.25,58.426,58.426,0,0,0,63.335,7.89ZM25.865,93.14a47.992,47.992,0,0,1,67.28-67.27,2.01,2.01,0,0,1,.21,3.02l-5.69,5.68a6.38,6.38,0,0,0-1.08-.14c-.02,0-.05-.01-.08-.01h-.12c-.07,0-.14-.01-.21-.01a7.016,7.016,0,0,0-7.02,7.02,7.312,7.312,0,0,0,.16,1.49l-5.78,5.79A10.427,10.427,0,0,0,54,49.79a9.021,9.021,0,0,1,2.24,17.63,10.985,10.985,0,0,1-1.73.31c-.31-.02-.62-.04-.94-.04a10.343,10.343,0,0,0-2.8.38,18.263,18.263,0,0,0-1.92.75,10.426,10.426,0,0,0-5.72,9.31v.98l-1.81,1.81V70.13a.5.5,0,0,1,1,0v.8a.492.492,0,0,0,.94.21,10.336,10.336,0,0,1,5.13-4.67,2.1,2.1,0,0,1,.26-.13,8.987,8.987,0,0,1-1.06-14.28,10.439,10.439,0,0,0-16.21,8.7v4.6a3.234,3.234,0,0,0,1.69,2.84.5.5,0,0,0,.72-.45V58.83a.5.5,0,0,1,.5-.5.5.5,0,0,1,.5.5l.01,22.86a3.259,3.259,0,0,0,2.57,3.18l-8.48,8.48A2.01,2.01,0,0,1,25.865,93.14Zm42.2-31.4c-.664.525-1.118.931-1.59,1.3a9.023,9.023,0,0,1,12.21-12.2,11.829,11.829,0,0,1-1.34,1.57,7.015,7.015,0,0,0-9.28,9.33ZM64,112a47.757,47.757,0,0,1-28.55-9.42,2.011,2.011,0,0,1-.23-3.04l51.1-51.1a7,7,0,0,0,6.87-6.87l6.36-6.36a2.007,2.007,0,0,1,3.03.23A47.991,47.991,0,0,1,64,112Z"/><text x="0" y="143" fill="#333333" font-size="5px" font-weight="bold" font-family="'Helvetica Neue', Helvetica, Arial-Unicode, Arial, Sans-serif"></text><text x="0" y="148" fill="#333333" font-size="5px" font-weight="bold" font-family="'Helvetica Neue', Helvetica, Arial-Unicode, Arial, Sans-serif"></text></svg>