<svg xmlns="http://www.w3.org/2000/svg" xmlns:xlink="http://www.w3.org/1999/xlink" version="1.1" x="0px" y="0px" viewBox="0 0 100 125" enable-background="new 0 0 100 100" xml:space="preserve"><path d="M75.226,21.473l-3.63-3.439l-3.438,3.63l-3.63-3.439l3.438-3.629l-3.63-3.439l3.438-3.63l3.63,3.439l3.438-3.63l3.63,3.439  l-3.438,3.629l3.63,3.439L75.226,21.473z"/><path d="M87.042,25.974l-4.451-2.278l1.367-2.67l4.451,2.278L87.042,25.974z"/><path d="M91.894,39.836l-2.052,4.56l-2.735-1.231l2.052-4.56L91.894,39.836z"/><path d="M85,50h-5v-3h5V50z"/><path d="M70.236,48.321l-3.572-3.499l2.1-2.143l3.572,3.499L70.236,48.321z"/><path d="M64.433,41.683l-4.769-1.504l0.903-2.861l4.769,1.504L64.433,41.683z"/><path d="M38.292,54.66l-3.365,3.698l-2.219-2.019l3.365-3.698L38.292,54.66z"/><path d="M34.161,62.104l-0.328,4.989l-2.994-0.196l0.328-4.989L34.161,62.104z"/><path d="M31.355,74.088l-4.718,1.655l-0.993-2.831l4.718-1.655L31.355,74.088z"/><path d="M58,29l-17,8.571L24,29L7,37.571V89l17-8.571L41,89l17-8.571L75,89v-2V39.571V39v-1.429L58,29z M17.346,74.757l-4.706-1.69  l1.014-2.823l4.706,1.69L17.346,74.757z M41,87l-17-8.571V31l17,8.571V87z M46.108,52.062l-1.524-2.584l4.307-2.54l1.524,2.584  L46.108,52.062z M53.037,44.378l-2.294-1.932l3.22-3.825l2.295,1.932L53.037,44.378z M73,85.991l-15-7.562V31l15,7.563V85.991z"/><path d="M92.668,28.829l0.639,4.959l-2.976,0.383l-0.639-4.959L92.668,28.829z"/><text x="0" y="115" fill="#333333" font-size="5px" font-weight="bold" font-family="'Helvetica Neue', Helvetica, Arial-Unicode, Arial, Sans-serif"></text><text x="0" y="120" fill="#333333" font-size="5px" font-weight="bold" font-family="'Helvetica Neue', Helvetica, Arial-Unicode, Arial, Sans-serif"></text></svg>