<svg xmlns="http://www.w3.org/2000/svg" viewBox="0 0 90 81.2375" x="0px" y="0px"><defs><style>.cls-1{fill-rule:evenodd;}</style></defs><title>Icon_Shrug</title><g><path class="cls-1" d="M60,28.64A11.14,11.14,0,1,1,48.82,17.5,11.14,11.14,0,0,1,60,28.64ZM50,82.5a97.47,97.47,0,0,1-12.35-.78l-1.72-27.9S26,61.36,24.82,63.54,5,47.68,5,47.68L6.59,44.9,22.44,52s7.34-7.93,9.12-10.51c.54-.77,3-2,6.18-3a14.86,14.86,0,0,0,22.35-.23c3.73.89,6.82,2.13,7.55,3.59C69.23,45.1,78,54.82,78,54.82L92.62,44.11,95,47.68S78.74,64.53,76.76,65.52,62.09,53,62.09,53V81.75A97.26,97.26,0,0,1,50,82.5Z" transform="translate(-5 -17.5)"/></g><text x="0" y="79.99" fill="#333333" font-size="5px" font-weight="bold" font-family="'Helvetica Neue', Helvetica, Arial-Unicode, Arial, Sans-serif"></text><text x="0" y="84.99" fill="#333333" font-size="5px" font-weight="bold" font-family="'Helvetica Neue', Helvetica, Arial-Unicode, Arial, Sans-serif">from the Noun Project</text></svg>