<svg xmlns="http://www.w3.org/2000/svg" xmlns:xlink="http://www.w3.org/1999/xlink" version="1.1" x="0px" y="0px" viewBox="0 0 100 125" style="enable-background:new 0 0 100 100;" xml:space="preserve"><path d="M89,88h-3.7529297v-4.5744629c2.6959229-0.480957,4.7519531-2.8618774,4.7519531-5.7243652v-3.6816406  c0-3.2080078-2.5800781-5.8183594-5.7519531-5.8183594c-3.1713867,0-5.7514648,2.6103516-5.7514648,5.8183594v3.6816406  c0,2.8624268,2.0559692,5.2433472,4.7514648,5.7243652V88h-8.1694336V72.9882812h0.824707c0.5522461,0,1-0.4477539,1-1v-7.4023438  c0-0.5522461-0.4477539-1-1-1h-0.824707V38.4995117h2.1972656c0.5522461,0,1-0.4477539,1-1v-8.3095703c0-0.5522461-0.4477539-1-1-1  H22.7250977c-0.5522461,0-1,0.4477539-1,1v8.3095703c0,0.5522461,0.4477539,1,1,1h2.1977539V88h-8.1704102v-4.5744629  c2.6959229-0.480957,4.7519531-2.8618774,4.7519531-5.7243652v-3.6816406c0-3.2080078-2.5800781-5.8183594-5.7519531-5.8183594  s-5.7519531,2.6103516-5.7519531,5.8183594v3.6816406c0,2.8624878,2.0560303,5.2434082,4.7519531,5.7243652V88H11  c-0.5522461,0-1,0.4477539-1,1s0.4477539,1,1,1h78c0.5522461,0,1-0.4477539,1-1S89.5522461,88,89,88z M80.4956055,77.7011719  v-3.6816406c0-2.1054688,1.6831055-3.8183594,3.7514648-3.8183594c2.0688477,0,3.7519531,1.7128906,3.7519531,3.8183594v3.6816406  c0,2.1054688-1.6831055,3.8183594-3.7519531,3.8183594C82.1787109,81.5195312,80.4956055,79.8066406,80.4956055,77.7011719z   M12.0004883,77.7011719v-3.6816406c0-2.1054688,1.6831055-3.8183594,3.7519531-3.8183594s3.7519531,1.7128906,3.7519531,3.8183594  v3.6816406c0,2.1054688-1.6831055,3.8183594-3.7519531,3.8183594S12.0004883,79.8066406,12.0004883,77.7011719z M73.0776367,88  h-5.5473633v-9.7060547c0-0.5522461-0.4477539-1-1-1h-8.4804688c-0.5522461,0-1,0.4477539-1,1V88h-6.0454102V72.9882812h22.0732422  V88z M65.5302734,88h-6.4804688v-8.7060547h6.4804688V88z M74.9023438,65.5859375v5.4023438H49.6777344v-5.4023438H74.9023438z   M23.7250977,30.1899414h52.5498047v6.3095703H23.7250977V30.1899414z M26.9228516,38.4995117h46.1547852v25.0864258H48.6777344  c-0.5522461,0-1,0.4477539-1,1v7.4023438c0,0.5522461,0.4477539,1,1,1h0.3266602V88h-22.081543V38.4995117z"/><path d="M57.7197266,48.3330078c0.5522461,0,1-0.4477539,1-1v-4.0703125c0-0.5522461-0.4477539-1-1-1s-1,0.4477539-1,1v4.0703125  C56.7197266,47.8852539,57.1674805,48.3330078,57.7197266,48.3330078z"/><path d="M65.4326172,48.3330078c0.5522461,0,1-0.4477539,1-1v-4.0703125c0-0.5522461-0.4477539-1-1-1s-1,0.4477539-1,1v4.0703125  C64.4326172,47.8852539,64.8803711,48.3330078,65.4326172,48.3330078z"/><path d="M57.7197266,59.0541992c0.5522461,0,1-0.4477539,1-1v-4.0703125c0-0.5522461-0.4477539-1-1-1s-1,0.4477539-1,1v4.0703125  C56.7197266,58.6064453,57.1674805,59.0541992,57.7197266,59.0541992z"/><path d="M65.4326172,59.0541992c0.5522461,0,1-0.4477539,1-1v-4.0703125c0-0.5522461-0.4477539-1-1-1s-1,0.4477539-1,1v4.0703125  C64.4326172,58.6064453,64.8803711,59.0541992,65.4326172,59.0541992z"/><path d="M34.5678711,42.2626953c-0.5522461,0-1,0.4477539-1,1v4.0703125c0,0.5522461,0.4477539,1,1,1s1-0.4477539,1-1v-4.0703125  C35.5678711,42.7104492,35.1201172,42.2626953,34.5678711,42.2626953z"/><path d="M42.2807617,42.2626953c-0.5522461,0-1,0.4477539-1,1v4.0703125c0,0.5522461,0.4477539,1,1,1s1-0.4477539,1-1v-4.0703125  C43.2807617,42.7104492,42.8330078,42.2626953,42.2807617,42.2626953z"/><path d="M49.9936523,48.3330078c0.5522461,0,1-0.4477539,1-1v-4.0703125c0-0.5522461-0.4477539-1-1-1s-1,0.4477539-1,1v4.0703125  C48.9936523,47.8852539,49.4414062,48.3330078,49.9936523,48.3330078z"/><path d="M34.5678711,52.9838867c-0.5522461,0-1,0.4477539-1,1v4.0703125c0,0.5522461,0.4477539,1,1,1s1-0.4477539,1-1v-4.0703125  C35.5678711,53.4316406,35.1201172,52.9838867,34.5678711,52.9838867z"/><path d="M42.2807617,52.9838867c-0.5522461,0-1,0.4477539-1,1v4.0703125c0,0.5522461,0.4477539,1,1,1s1-0.4477539,1-1v-4.0703125  C43.2807617,53.4316406,42.8330078,52.9838867,42.2807617,52.9838867z"/><path d="M34.5678711,63.7050781c-0.5522461,0-1,0.4477539-1,1v4.0698242c0,0.5522461,0.4477539,1,1,1s1-0.4477539,1-1v-4.0698242  C35.5678711,64.152832,35.1201172,63.7050781,34.5678711,63.7050781z"/><path d="M42.2807617,63.7050781c-0.5522461,0-1,0.4477539-1,1v4.0698242c0,0.5522461,0.4477539,1,1,1s1-0.4477539,1-1v-4.0698242  C43.2807617,64.152832,42.8330078,63.7050781,42.2807617,63.7050781z"/><path d="M34.5678711,74.4257812c-0.5522461,0-1,0.4477539-1,1v4.0703125c0,0.5522461,0.4477539,1,1,1s1-0.4477539,1-1v-4.0703125  C35.5678711,74.8735352,35.1201172,74.4257812,34.5678711,74.4257812z"/><path d="M42.2807617,74.4257812c-0.5522461,0-1,0.4477539-1,1v4.0703125c0,0.5522461,0.4477539,1,1,1s1-0.4477539,1-1v-4.0703125  C43.2807617,74.8735352,42.8330078,74.4257812,42.2807617,74.4257812z"/><path d="M49.9936523,59.0541992c0.5522461,0,1-0.4477539,1-1v-4.0703125c0-0.5522461-0.4477539-1-1-1s-1,0.4477539-1,1v4.0703125  C48.9936523,58.6064453,49.4414062,59.0541992,49.9936523,59.0541992z"/><path d="M25.0498047,15.4487305c-0.1074219-0.3295898-0.3774414-0.5800781-0.7138672-0.6625977l-3.8510742-0.9399414  l-2.0844727-3.3720703c-0.3642578-0.5898438-1.3369141-0.5898438-1.7011719,0l-2.0844727,3.3720703l-3.8515625,0.9399414  c-0.3364258,0.0825195-0.6064453,0.3330078-0.7138672,0.6625977c-0.1069336,0.3295898-0.0356445,0.6914062,0.1884766,0.9555664  l2.5629883,3.0249023l-0.2954102,3.953125c-0.0258789,0.3457031,0.1289062,0.6801758,0.4091797,0.8837891  c0.28125,0.2041016,0.6459961,0.2475586,0.9672852,0.1162109l3.6679688-1.503418l3.6679688,1.503418  c0.1225586,0.050293,0.2509766,0.074707,0.3793945,0.074707c0.2080078,0,0.4140625-0.0649414,0.5878906-0.190918  c0.2802734-0.2036133,0.4350586-0.5380859,0.4091797-0.8837891l-0.2954102-3.953125l2.5629883-3.0249023  C25.0854492,16.1396484,25.1567383,15.7783203,25.0498047,15.4487305z M20.5078125,18.4487305  c-0.1694336,0.2001953-0.253418,0.4594727-0.2338867,0.7211914l0.2055664,2.7480469l-2.550293-1.0449219  c-0.121582-0.0498047-0.2504883-0.074707-0.3793945-0.074707s-0.2578125,0.0249023-0.3793945,0.074707l-2.550293,1.0449219  l0.2055664-2.7480469c0.0195312-0.2617188-0.0644531-0.5209961-0.234375-0.7211914l-1.7817383-2.1030273l2.6777344-0.6533203  c0.2548828-0.0625,0.4750977-0.2226562,0.6132812-0.4458008l1.4492188-2.3447266l1.4492188,2.3447266  c0.1381836,0.2231445,0.3583984,0.3833008,0.6132812,0.4458008l2.6777344,0.6533203L20.5078125,18.4487305z"/><path d="M41.2753906,15.4487305c-0.1074219-0.3295898-0.3774414-0.5800781-0.7138672-0.6625977l-3.8515625-0.9399414  l-2.0844727-3.3720703c-0.3642578-0.5898438-1.3369141-0.5898438-1.7011719,0l-2.0844727,3.3720703l-3.8510742,0.9399414  c-0.3364258,0.0825195-0.6064453,0.3330078-0.7138672,0.6625977c-0.1069336,0.3295898-0.0356445,0.6914062,0.1884766,0.9555664  l2.5629883,3.0249023l-0.2958984,3.953125c-0.0258789,0.3457031,0.1289062,0.6801758,0.4091797,0.8837891  c0.1738281,0.1259766,0.3798828,0.190918,0.5878906,0.190918c0.128418,0,0.2568359-0.0244141,0.3793945-0.074707l3.6679688-1.503418  l3.668457,1.503418c0.3217773,0.1313477,0.6865234,0.0878906,0.9672852-0.1162109  c0.2802734-0.2036133,0.4350586-0.5380859,0.4091797-0.8837891l-0.2958984-3.953125l2.5629883-3.0249023  C41.3110352,16.1401367,41.3823242,15.7783203,41.2753906,15.4487305z M36.7333984,18.4487305  c-0.1699219,0.2001953-0.2539062,0.4594727-0.234375,0.7211914l0.2055664,2.7480469l-2.550293-1.0449219  c-0.121582-0.0498047-0.2504883-0.074707-0.3793945-0.074707s-0.2578125,0.0249023-0.3793945,0.074707l-2.5498047,1.0449219  l0.2055664-2.7480469c0.0195312-0.2617188-0.0644531-0.5209961-0.234375-0.7211914l-1.7817383-2.1030273l2.6772461-0.6533203  c0.2548828-0.0625,0.4750977-0.2226562,0.6132812-0.4458008l1.4492188-2.3447266l1.4492188,2.3447266  c0.1381836,0.2231445,0.3583984,0.3833008,0.6132812,0.4458008l2.6777344,0.6533203L36.7333984,18.4487305z"/><path d="M57.5004883,15.4487305c-0.1074219-0.3295898-0.3774414-0.5800781-0.7138672-0.6625977l-3.8510742-0.9399414  l-2.0844727-3.3720703c-0.3642578-0.5898438-1.3369141-0.5898438-1.7011719,0l-2.0844727,3.3720703l-3.8515625,0.9399414  C42.8774414,14.8686523,42.6074219,15.1191406,42.5,15.4487305c-0.1069336,0.3295898-0.0356445,0.6914062,0.1884766,0.9555664  l2.5629883,3.0249023l-0.2954102,3.953125c-0.0258789,0.3457031,0.1289062,0.6801758,0.4091797,0.8837891  c0.28125,0.2041016,0.6469727,0.2475586,0.9672852,0.1162109l3.6679688-1.503418l3.6679688,1.503418  c0.1225586,0.050293,0.2509766,0.074707,0.3793945,0.074707c0.2080078,0,0.4140625-0.0649414,0.5878906-0.190918  c0.2802734-0.2036133,0.4350586-0.5380859,0.4091797-0.8837891l-0.2954102-3.953125L57.3125,16.4042969  C57.5361328,16.1396484,57.6074219,15.7783203,57.5004883,15.4487305z M52.9584961,18.4487305  c-0.1694336,0.2001953-0.253418,0.4594727-0.2338867,0.7211914l0.2055664,2.7480469l-2.550293-1.0449219  c-0.121582-0.0498047-0.2504883-0.074707-0.3793945-0.074707s-0.2578125,0.0249023-0.3793945,0.074707l-2.550293,1.0449219  l0.2055664-2.7480469c0.0195312-0.2617188-0.0644531-0.5209961-0.234375-0.7211914l-1.7817383-2.1030273l2.6777344-0.6533203  c0.2548828-0.0625,0.4750977-0.2226562,0.6132812-0.4458008l1.4492188-2.3447266l1.4492188,2.3447266  c0.1381836,0.2231445,0.3583984,0.3833008,0.6132812,0.4458008l2.6777344,0.6533203L52.9584961,18.4487305z"/><path d="M73.7260742,15.4487305c-0.1074219-0.3295898-0.3774414-0.5800781-0.7138672-0.6625977l-3.8515625-0.9399414  l-2.0844727-3.3720703c-0.3642578-0.5898438-1.3369141-0.5898438-1.7011719,0l-2.0844727,3.3720703l-3.8510742,0.9399414  c-0.3364258,0.0825195-0.6064453,0.3330078-0.7138672,0.6625977c-0.1069336,0.3295898-0.0356445,0.6914062,0.1884766,0.9555664  l2.5629883,3.0249023l-0.2958984,3.953125c-0.0258789,0.3457031,0.1289062,0.6801758,0.4091797,0.8837891  c0.1738281,0.1259766,0.3798828,0.190918,0.5878906,0.190918c0.128418,0,0.2568359-0.0244141,0.3793945-0.074707l3.6679688-1.503418  l3.668457,1.503418c0.3212891,0.1313477,0.6860352,0.0878906,0.9672852-0.1162109  c0.2802734-0.2036133,0.4350586-0.5380859,0.4091797-0.8837891l-0.2958984-3.953125l2.5629883-3.0249023  C73.7617188,16.1401367,73.8330078,15.7783203,73.7260742,15.4487305z M69.184082,18.4487305  c-0.1699219,0.2001953-0.2539062,0.4594727-0.234375,0.7211914l0.2055664,2.7480469l-2.550293-1.0449219  c-0.121582-0.0498047-0.2504883-0.074707-0.3793945-0.074707s-0.2578125,0.0249023-0.3793945,0.074707l-2.5498047,1.0449219  l0.2055664-2.7480469c0.0195312-0.2617188-0.0644531-0.5209961-0.234375-0.7211914l-1.7817383-2.1030273l2.6772461-0.6533203  c0.2548828-0.0625,0.4750977-0.2226562,0.6132812-0.4458008l1.4492188-2.3447266l1.4492188,2.3447266  c0.1381836,0.2231445,0.3583984,0.3833008,0.6132812,0.4458008l2.6777344,0.6533203L69.184082,18.4487305z"/><path d="M89.9511719,15.4487305c-0.1074219-0.3295898-0.3774414-0.5800781-0.7138672-0.6625977l-3.8510742-0.9399414  l-2.0844727-3.3720703c-0.3642578-0.5898438-1.3369141-0.5898438-1.7011719,0l-2.0844727,3.3720703l-3.8510742,0.9399414  c-0.3364258,0.0825195-0.6064453,0.3330078-0.7138672,0.6625977c-0.1069336,0.3295898-0.0356445,0.690918,0.1879883,0.9555664  l2.5629883,3.0249023l-0.2954102,3.953125c-0.0258789,0.3457031,0.1289062,0.6801758,0.4091797,0.8837891  c0.2807617,0.2041016,0.6464844,0.2475586,0.9672852,0.1162109l3.6679688-1.503418l3.6679688,1.503418  c0.1225586,0.050293,0.2509766,0.074707,0.3793945,0.074707c0.2080078,0,0.4140625-0.0649414,0.5878906-0.190918  c0.2802734-0.2036133,0.4350586-0.5380859,0.4091797-0.8837891l-0.2954102-3.953125l2.5629883-3.0249023  C89.9868164,16.1396484,90.0581055,15.7783203,89.9511719,15.4487305z M85.4091797,18.4487305  c-0.1694336,0.2001953-0.253418,0.4594727-0.2338867,0.7211914l0.2055664,2.7480469l-2.550293-1.0449219  c-0.121582-0.0498047-0.2504883-0.074707-0.3793945-0.074707s-0.2578125,0.0249023-0.3793945,0.074707l-2.550293,1.0449219  l0.2055664-2.7480469c0.0195312-0.2617188-0.0644531-0.5209961-0.2338867-0.7211914l-1.7822266-2.1030273l2.6777344-0.6533203  c0.2548828-0.0625,0.4750977-0.2226562,0.6132812-0.4458008l1.4492188-2.3447266l1.4492188,2.3447266  c0.1381836,0.2231445,0.3583984,0.3833008,0.6132812,0.4458008l2.6777344,0.6533203L85.4091797,18.4487305z"/><text x="0" y="115" fill="#333333" font-size="5px" font-weight="bold" font-family="'Helvetica Neue', Helvetica, Arial-Unicode, Arial, Sans-serif"></text><text x="0" y="120" fill="#333333" font-size="5px" font-weight="bold" font-family="'Helvetica Neue', Helvetica, Arial-Unicode, Arial, Sans-serif"></text></svg>