<svg xmlns="http://www.w3.org/2000/svg" xmlns:xlink="http://www.w3.org/1999/xlink" version="1.1" x="0px" y="0px" viewBox="0 0 96 120" enable-background="new 0 0 96 96" xml:space="preserve"><g><path d="M23.708,29.101c-3.802,12.322-7.482,23.89-11.319,33.829c-0.342-1.021-0.683-2.022-1.02-3.008   C10.244,60.473,9.121,61.016,8,61.548c2.374,3.009,4.844,6.537,7.352,10.454c-0.424-1.334-0.846-2.646-1.265-3.935   c10.125-0.571,20.357-0.885,30.599-0.94C37.887,53.045,30.685,39.394,23.708,29.101z M25,47.188   c3.51,5.351,7.055,11.374,10.546,17.721c-3.301,0.101-6.596,0.24-9.88,0.42C25.444,59.266,25.222,53.219,25,47.188z"/><path d="M88,61.548c-1.121-0.532-2.243-1.075-3.368-1.626c-0.339,0.985-0.68,1.989-1.022,3.01   c-3.79-10.116-7.42-21.876-11.169-34.409c-15.453-5.946-32.59-6.045-48.098-0.295c-0.082,0.105-0.164,0.21-0.246,0.315   C31.16,39.008,38.438,52.876,45.3,67.124c12.247-0.055,24.506,0.26,36.613,0.943c-0.421,1.292-0.845,2.607-1.271,3.945   C83.152,68.092,85.625,64.56,88,61.548z M45.515,65.78c-6.648-13.433-13.669-26.505-20.522-36.55   c15.128-5.288,31.713-5.196,46.79,0.276c3.982,13.245,7.825,25.647,11.859,36.171c-0.312,0.447-0.625,0.901-0.938,1.362   C70.439,66.136,57.97,65.716,45.515,65.78z"/></g><text x="0" y="111" fill="#333333" font-size="5px" font-weight="bold" font-family="'Helvetica Neue', Helvetica, Arial-Unicode, Arial, Sans-serif"></text><text x="0" y="116" fill="#333333" font-size="5px" font-weight="bold" font-family="'Helvetica Neue', Helvetica, Arial-Unicode, Arial, Sans-serif"></text></svg>