<svg xmlns="http://www.w3.org/2000/svg" xmlns:xlink="http://www.w3.org/1999/xlink" version="1.1" x="0px" y="0px" viewBox="0 0 60 75" enable-background="new 0 0 60 60" xml:space="preserve"><g><path d="M59.98,28.69c-0.11-1.06-0.63-2.02-1.5-2.71L53,21.92V12h-8v4L30.06,4.95L1.56,25c-0.85,0.65-1.39,1.59-1.53,2.65   c-0.14,1.06,0.14,2.11,0.8,2.96C1.59,31.6,2.75,32.17,4,32.17c0.89,0,1.73-0.29,2.4-0.8L7,30.95v2.4c-1.18,0.56-2,1.76-2,3.15   s0.82,2.58,2,3.15v3.7c-1.18,0.56-2,1.76-2,3.15s0.82,2.58,2,3.15v3.7c-1.18,0.56-2,1.76-2,3.15C5,58.43,6.57,60,8.5,60H23h2h10h2   h14.5c1.93,0,3.5-1.57,3.5-3.5c0-1.76-1.31-3.2-3-3.45v-3.1c1.69-0.25,3-1.69,3-3.45s-1.31-3.2-3-3.45v-3.1   c1.69-0.25,3-1.69,3-3.45s-1.31-3.2-3-3.45v-1.91l1.49,1.08c0.71,0.57,1.6,0.89,2.51,0.89c1.21,0,2.35-0.54,3.12-1.49   C59.78,30.8,60.09,29.75,59.98,28.69z M47,14h4v6.44l-4-2.96V14z M23,58H8.5C7.67,58,7,57.33,7,56.5S7.67,55,8.5,55H23V58z M23,53   H9v-3h14V53z M23,48H8.5C7.67,48,7,47.33,7,46.5S7.67,45,8.5,45H23V48z M23,43H9v-3h14V43z M35,43v1v5v1v3v1v4H25v-4v-1v-3v-1v-5   v-1v-3h10V43z M53,56.5c0,0.83-0.67,1.5-1.5,1.5H37v-3h14.5C52.33,55,53,55.67,53,56.5z M37,53v-3h13v3H37z M53,46.5   c0,0.83-0.67,1.5-1.5,1.5H37v-3h14.5C52.33,45,53,45.67,53,46.5z M37,43v-3h13v3H37z M53,36.5c0,0.83-0.67,1.5-1.5,1.5H37H23H8.5   C7.67,38,7,37.33,7,36.5S7.67,35,8.5,35H24h12h15.5C52.33,35,53,35.67,53,36.5z M20,28h-8.74l4.41-3.06C15.78,24.98,15.89,25,16,25   h5c0.55,0,1-0.45,1-1s-0.45-1-1-1h-1.88l4.2-3h13.36l2.28,1.63L40.84,23H39c-0.55,0-1,0.45-1,1s0.45,1,1,1h4.58l4.11,3H40   c-0.55,0-1,0.45-1,1s0.45,1,1,1h10v3H36V23H24v10H9v-3h11c0.55,0,1-0.45,1-1S20.55,28,20,28z M25.68,18l4.26-2.95L33.99,18H25.68z    M31,28v-3h3v3H31z M34,30v3h-3v-3H34z M26,28v-3h3v3H26z M29,30v3h-3v-3H29z M57.56,30.37c-0.67,0.83-1.93,1.01-2.85,0.27   l-3.18-2.32L51.09,28h0l-6.27-4.57c-0.06-0.09-0.14-0.17-0.23-0.24l-4.42-3.16l-10.19-7.43L7.69,28.04l-0.01,0l-0.35,0.25   l-2.11,1.46c-0.85,0.66-2.15,0.48-2.8-0.37c-0.33-0.42-0.47-0.95-0.4-1.48c0.07-0.53,0.34-1,0.73-1.3l27.28-19.2L45,18.49v0   l2.2,1.63l10.06,7.44c0.42,0.33,0.68,0.81,0.73,1.34C58.05,29.43,57.89,29.96,57.56,30.37z"/><circle cx="27" cy="49" r="1"/><path d="M47,11c0.26,0,0.52-0.11,0.71-0.29C47.89,10.52,48,10.26,48,10s-0.11-0.52-0.29-0.71c-0.37-0.37-1.05-0.37-1.42,0   C46.11,9.48,46,9.74,46,10s0.11,0.52,0.29,0.71C46.48,10.89,46.74,11,47,11z"/><path d="M51,11c0.55,0,1-0.45,1-1V6c0-0.55-0.45-1-1-1s-1,0.45-1,1v4C50,10.55,50.45,11,51,11z"/><path d="M51,4c0.55,0,1-0.45,1-1V1c0-0.55-0.45-1-1-1s-1,0.45-1,1v2C50,3.55,50.45,4,51,4z"/><path d="M47,8c0.55,0,1-0.45,1-1V5c0-0.55-0.45-1-1-1s-1,0.45-1,1v2C46,7.55,46.45,8,47,8z"/><path d="M47,3c0.55,0,1-0.45,1-1V1c0-0.55-0.45-1-1-1s-1,0.45-1,1v1C46,2.55,46.45,3,47,3z"/></g><text x="0" y="75" fill="#333333" font-size="5px" font-weight="bold" font-family="'Helvetica Neue', Helvetica, Arial-Unicode, Arial, Sans-serif"></text><text x="0" y="80" fill="#333333" font-size="5px" font-weight="bold" font-family="'Helvetica Neue', Helvetica, Arial-Unicode, Arial, Sans-serif"></text></svg>