<svg xmlns="http://www.w3.org/2000/svg" viewBox="0 0 64 80" x="0px" y="0px"><title>binoculars-Observation-spy-watching-survey</title><path d="M34.293,25.253a3.228,3.228,0,0,1-2.3.952h0a3.2,3.2,0,0,1-2.282-.95l-1.418,1.41a5.188,5.188,0,0,0,3.7,1.54H32a5.214,5.214,0,0,0,3.711-1.538Z"/><path d="M60.785,33.149,48.776,18.37l-.012.01a1,1,0,0,0-.057-.087l-3-3A1,1,0,0,0,45,15h3V13H41.834L39.984,2.822A1,1,0,0,0,39,2H34a1,1,0,0,0-.707.293L32,3.586,30.707,2.293A1,1,0,0,0,30,2H25a1,1,0,0,0-.984.822L22.166,13H15v2h4a1,1,0,0,0-.707.293l-3,3a1,1,0,0,0-.057.087l-.012-.01L3.215,33.149A5.428,5.428,0,0,0,7.428,42H18V61a1,1,0,0,0,1,1H45a1,1,0,0,0,1-1V42H56.572a5.428,5.428,0,0,0,4.213-8.851ZM44.586,17,46.5,18.917,43.074,21.66l-1.367-1.367A1,1,0,0,0,41,20H39.724a4.214,4.214,0,0,0,0-3ZM34,30H30a5.818,5.818,0,0,1-1.656-.232A6,6,0,0,1,24,24V22h1.706A4.426,4.426,0,0,0,32,21.294,4.426,4.426,0,0,0,38.294,22H40v2a6,6,0,0,1-4.354,5.771A5.8,5.8,0,0,1,34,30Zm1,1.931v1.655L31.966,36.62,29,33.936v-2A8.034,8.034,0,0,0,30,32h4A8.02,8.02,0,0,0,35,31.931ZM23.325,28.41a7.973,7.973,0,0,0,3.675,3V33H21a1,1,0,0,0-.447.1l-1.789.9H13.135l8.607-10.328L22,23.414V24A7.95,7.95,0,0,0,23.325,28.41ZM26,18.5A2.5,2.5,0,1,1,28.5,21,2.5,2.5,0,0,1,26,18.5ZM31.294,15h1.412a4.532,4.532,0,0,0-.706.706A4.532,4.532,0,0,0,31.294,15ZM33,18.5A2.5,2.5,0,1,1,35.5,21,2.5,2.5,0,0,1,33,18.5Zm4,12.914A7.993,7.993,0,0,0,42,24v-.586l.258.258L50.865,34H45.236l-1.789-.9A1,1,0,0,0,43,33H37ZM25.835,4h3.751l1.707,1.707a1,1,0,0,0,1.414,0L34.414,4h3.751l.909,5H24.926Zm-1.273,7H39.438l.364,2H24.2Zm-5.148,6h4.862a4.214,4.214,0,0,0,0,3H23a1,1,0,0,0-.707.293L20.926,21.66,17.5,18.917ZM19,40H7.428a3.428,3.428,0,0,1-2.66-5.59L16.15,20.4l3.428,2.742L10.231,34.36A1,1,0,0,0,11,36h8a1,1,0,0,0,.447-.1l1.789-.9H22v6.877a4.268,4.268,0,0,1-2,3.617V41A1,1,0,0,0,19,40ZM31,60H20V47.711a6.257,6.257,0,0,0,4-5.834V35h3v6a5.009,5.009,0,0,0,4,4.9ZM29,41V36.633l2.329,2.108a1,1,0,0,0,1.378-.034L35,36.414V41a3,3,0,0,1-6,0ZM44,60H33V45.9A5.009,5.009,0,0,0,37,41V35h3v6.877a6.257,6.257,0,0,0,4,5.834ZM56.572,40H45a1,1,0,0,0-1,1v4.494a4.268,4.268,0,0,1-2-3.617V35h.764l1.789.9A1,1,0,0,0,45,36h8a1,1,0,0,0,.769-1.64L44.422,23.143,47.85,20.4l11.382,14.01A3.427,3.427,0,0,1,56.572,40Z"/><path d="M36,51a1,1,0,0,0-1,1v2.5a3.5,3.5,0,0,0,7,0V52a1,1,0,0,0-1-1Zm4,3.5a1.5,1.5,0,0,1-3,0V53h3Z"/><path d="M28,51H23a1,1,0,0,0-1,1v2.5a3.5,3.5,0,0,0,7,0V52A1,1,0,0,0,28,51Zm-1,3.5a1.5,1.5,0,0,1-3,0V53h3Z"/><text x="0" y="79" fill="#333333" font-size="5px" font-weight="bold" font-family="'Helvetica Neue', Helvetica, Arial-Unicode, Arial, Sans-serif"></text><text x="0" y="84" fill="#333333" font-size="5px" font-weight="bold" font-family="'Helvetica Neue', Helvetica, Arial-Unicode, Arial, Sans-serif"></text></svg>