<svg xmlns="http://www.w3.org/2000/svg" xmlns:xlink="http://www.w3.org/1999/xlink" version="1.1" x="0px" y="0px" viewBox="0 0 100 125" enable-background="new 0 0 100 100" xml:space="preserve"><g><path d="M47.97,20.137c3.905,0,7.083-3.177,7.083-7.082c0-3.905-3.178-7.082-7.083-7.082s-7.082,3.177-7.082,7.082   C40.889,16.96,44.065,20.137,47.97,20.137z"/><path d="M33.397,44.809c0.472,0,0.875-0.37,0.958-0.878l3.72-22.787c0.047-0.285-0.018-0.577-0.179-0.801   c-0.144-0.201-0.353-0.333-0.588-0.371l-7.545-1.232c-0.524-0.086-1.007,0.308-1.099,0.867l-3.72,22.786   c-0.047,0.286,0.019,0.578,0.179,0.802c0.144,0.2,0.353,0.332,0.587,0.369l7.544,1.232C33.303,44.805,33.351,44.809,33.397,44.809z   "/><path d="M66.971,43.4c0.437-2.264-1.045-4.454-3.31-4.89l-7.16-1.38l-2.017-3.161l-1.608-7.774   c-0.628-3.035-3.379-5.153-6.478-4.985c-3.095,0.171-5.6,2.58-5.891,5.666l-0.131,1.393l-9.629,60.931   c-0.36,2.278,1.195,4.416,3.472,4.776c0.221,0.034,0.44,0.052,0.657,0.052c2.019,0,3.794-1.468,4.119-3.524l5.426-34.336   l8.188,32.234c0.509,2.001,2.308,3.334,4.281,3.334c0.36,0,0.728-0.045,1.093-0.137c2.366-0.602,3.797-3.008,3.196-5.374   l-9.982-39.297l0.254-2.695c0.5,0.374,1.08,0.639,1.706,0.759l8.924,1.719C64.347,47.147,66.535,45.665,66.971,43.4z"/><path d="M73.796,26.823c-0.806-0.109-1.55,0.455-1.66,1.261l-8.351,61.24c-0.109,0.807,0.455,1.55,1.261,1.659   c0.068,0.01,0.135,0.015,0.201,0.015c0.726,0,1.357-0.537,1.459-1.275l8.351-61.24C75.167,27.676,74.602,26.933,73.796,26.823z"/><path d="M29.506,17.668l4.339,0.9c0.042,0.009,0.084,0.013,0.125,0.013c0.079,0,0.155-0.017,0.227-0.045   c0.194,0.026,0.391,0.045,0.592,0.045c2.415,0,4.38-1.965,4.38-4.38s-1.965-4.38-4.38-4.38s-4.38,1.965-4.38,4.38   c0,0.963,0.316,1.852,0.845,2.576l-1.498-0.311c-0.333-0.068-0.657,0.144-0.726,0.477C28.96,17.274,29.174,17.599,29.506,17.668z"/></g><text x="0" y="115" fill="#333333" font-size="5px" font-weight="bold" font-family="'Helvetica Neue', Helvetica, Arial-Unicode, Arial, Sans-serif"></text><text x="0" y="120" fill="#333333" font-size="5px" font-weight="bold" font-family="'Helvetica Neue', Helvetica, Arial-Unicode, Arial, Sans-serif"></text></svg>