<svg xmlns="http://www.w3.org/2000/svg" viewBox="0 0 512 640" x="0px" y="0px"><title>Activities-adventure-extreme-kayak-sport</title><g data-name="Out line"><path d="M494.79,307.76a8.04588,8.04588,0,0,0-5.73-3.69L390.9,290.98c-.05993-.01-.12-.01-.18-.02l6.08008-4.56A7.99565,7.99565,0,0,0,398.78,275.76l-32.43994-51.9A33.46589,33.46589,0,0,0,343.21,208.46l-2.04-18.36A47.56269,47.56269,0,0,0,360,152a48,48,0,0,0-96,0,7.97228,7.97228,0,0,0,3.68994,6.73l-10.84985,21.69A7.99836,7.99836,0,0,0,264,192h8v8a7.99786,7.99786,0,0,0,8,8h8v5.74a36.39222,36.39222,0,0,0-5.65991,4.6A35.2341,35.2341,0,0,0,272.87,235.49l-23.01-11.51a23.988,23.988,0,0,0-28.22-5.63l-4.78-4.79,6.9-27.62a8.02336,8.02336,0,0,0-2.1-7.6l-48-48a8.01514,8.01514,0,0,0-11.31994,0l-40,40a8.0151,8.0151,0,0,0,0,11.32l48,48a8.00265,8.00265,0,0,0,7.6,2.1l27.6-6.9,4.8,4.82a23.99435,23.99435,0,0,0,31.91,32.02l41.43994,41.59-10.77-6.47A61.92489,61.92489,0,0,0,241.07,288H187.26a355.83243,355.83243,0,0,0-39.29,2.18L23.12,304.05a7.99848,7.99848,0,0,0-6.71,10.48l.94,2.82a113.3401,113.3401,0,0,0,24.46,41.36l11.75-10.86a97.22881,97.22881,0,0,1-18.59-29.02L72.52,314.66,107,342.25a8.02828,8.02828,0,0,0,5,1.75H216a7.99782,7.99782,0,0,0,8-8V304h17.07a45.93119,45.93119,0,0,1,23.61993,6.54l14.39014,8.64a61.92371,61.92371,0,0,0,9.21,4.53,23.97879,23.97879,0,0,0,33.77,18.07l8.27,8.31,11.33984-11.3L335.37,332.47l30.30993-22.73a45.90394,45.90394,0,0,1,23.1001-2.9l88.09,11.75a97.42082,97.42082,0,0,1-18.29993,27.31l11.61987,11a114.8989,114.8989,0,0,0,25.40015-42.37A8.03623,8.03623,0,0,0,494.79,307.76ZM201.4,209.4l-22.95,5.74L139.31,176,168,147.31l39.14,39.14ZM232,248a8,8,0,1,1,8-8A8.01066,8.01066,0,0,1,232,248Zm40,20.89-18.39-18.46a23.63366,23.63366,0,0,0,1.92-5.72L272,252.94ZM128,328H114.81l-19.8-15.84L128,308.49Zm40,0H144V306.72l5.74-.64c6.05-.67,12.15-1.18,18.26-1.53Zm40,0H184V304.02c1.09-.01,2.18-.02,3.26-.02H208ZM312,120a32.00464,32.00464,0,0,1,18.93994,57.8l-11.51-28.77A8.00616,8.00616,0,0,0,312,144H281.01A32.05811,32.05811,0,0,1,312,120Zm-8,88v-4.69l14.22-14.22,1.21,3.02a8.00337,8.00337,0,0,0,6.42005,4.96L327.06006,208Zm-24-32h-3.06006l8-16h21.64014L311.76,172.93,292.68994,192H288v-8A7.99782,7.99782,0,0,0,280,176Zm32,152a8,8,0,1,1,8-8A8.0107,8.0107,0,0,1,312,328Zm-.83008-31.98a23.7988,23.7988,0,0,0-9.71,2.43L288,284.94V243.31A19.32426,19.32426,0,0,1,307.31006,224h1.74A33.5322,33.5322,0,0,0,304,241.74v1.39a33.90192,33.90192,0,0,0,13.49,26.99l13.45,10.08ZM334.9,312.82a24.081,24.081,0,0,0-6.37-10.2L349,286.25a8.00368,8.00368,0,0,0-.2-12.65l-21.71-16.28A17.81269,17.81269,0,0,1,320,243.13v-1.39a17.73691,17.73691,0,0,1,32.78-9.4l28.54,45.67Z"/><path d="M479.51367,376c-8.46875,0-12.22754-2.71875-17.4292-6.48193C456.22217,365.27783,448.92627,360,435.27686,360c-13.64991,0-20.94532,5.27734-26.80762,9.51807C403.2666,373.28125,399.50781,376,391.03857,376c-8.46875,0-12.22753-2.71875-17.42919-6.48193C367.74707,365.27783,360.45117,360,346.80176,360c-13.64893,0-20.94483,5.27783-26.80664,9.51807-5.20166,3.76318-8.96,6.48193-17.42871,6.48193-8.46729,0-12.2251-2.71875-17.42579-6.48145C279.27881,365.27783,271.98389,360,258.33594,360c-13.64893,0-20.94483,5.27783-26.80664,9.51807-5.20166,3.76318-8.96,6.48193-17.42871,6.48193s-12.22754-2.71875-17.4292-6.48193C190.80908,365.27734,183.51367,360,169.86426,360s-20.94483,5.27783-26.80713,9.51807C137.85547,373.28125,134.09668,376,125.62842,376c-8.46778,0-12.22608-2.71875-17.42774-6.48193C102.33887,365.27783,95.04346,360,81.39453,360c-13.64844,0-20.94385,5.27783-26.80517,9.51855C49.3877,373.28125,45.62988,376,37.16211,376a24.25662,24.25662,0,0,1-9.96826-1.84814l-6.3877,14.66992A40.19669,40.19669,0,0,0,37.16211,392c13.64844,0,20.94385-5.27783,26.80518-9.51855C69.169,378.71875,72.92676,376,81.39453,376c8.46826,0,12.22656,2.71875,17.42822,6.48193C104.68457,386.72217,111.98,392,125.62842,392c13.64892,0,20.94433-5.27734,26.80664-9.51807C157.63672,378.71875,161.39551,376,169.86426,376s12.22754,2.71875,17.4292,6.48193C193.15576,386.72266,200.45117,392,214.10059,392c13.64892,0,20.94433-5.27783,26.80664-9.51807,5.20166-3.76318,8.96-6.48193,17.42871-6.48193,8.46728,0,12.2251,2.71875,17.42578,6.48145C281.62354,386.72217,288.91846,392,302.56641,392c13.64892,0,20.94482-5.27783,26.80664-9.51807C334.57471,378.71875,338.333,376,346.80176,376c8.46924,0,12.22754,2.71875,17.42969,6.48193C370.09375,386.72266,377.38916,392,391.03857,392s20.94581-5.27734,26.80811-9.51807C423.04883,378.71875,426.80762,376,435.27686,376s12.22753,2.71875,17.42968,6.48193C458.56885,386.72266,465.86426,392,479.51367,392a43.467,43.467,0,0,0,10.37451-1.16748l-3.77636-15.54785A27.74243,27.74243,0,0,1,479.51367,376Z"/></g><text x="0" y="527" fill="#333333" font-size="5px" font-weight="bold" font-family="'Helvetica Neue', Helvetica, Arial-Unicode, Arial, Sans-serif"></text><text x="0" y="532" fill="#333333" font-size="5px" font-weight="bold" font-family="'Helvetica Neue', Helvetica, Arial-Unicode, Arial, Sans-serif"></text></svg>