<svg xmlns="http://www.w3.org/2000/svg" xmlns:xlink="http://www.w3.org/1999/xlink" xml:space="preserve" version="1.1" style="shape-rendering:geometricPrecision;text-rendering:geometricPrecision;image-rendering:optimizeQuality;" viewBox="0 0 847 1058.75" x="0px" y="0px" fill-rule="evenodd" clip-rule="evenodd"><defs><style type="text/css">
   
    .fil0 {fill:black;fill-rule:nonzero}
   
  </style></defs><g><path class="fil0" d="M208 364c15,-46 30,-91 46,-137l-59 0c-30,0 -30,46 0,46 23,0 23,34 0,34 -74,0 -74,-114 0,-114l82 0c13,0 21,13 16,24l-10 31 246 0 16 -52 -23 0c-22,0 -22,-34 0,-34l92 0c22,0 22,34 0,34l-34 0 -21 68 56 107c107,-42 223,38 223,152 0,89 -73,162 -163,162 -83,0 -153,-63 -162,-146l-11 0c-4,20 -22,34 -42,34 -31,0 -52,-32 -39,-60l-168 -178 -13 40c57,26 94,84 94,148 0,144 -175,216 -277,114 -114,-113 -9,-309 151,-273zm337 -54l-57 187c3,2 6,5 8,9l17 0c6,-49 32,-92 72,-119l-40 -77zm86 92l59 113c6,11 -2,24 -15,24l-127 0c8,64 63,112 127,112 71,0 129,-57 129,-128 0,-89 -89,-152 -173,-121zm-83 104l99 0 -46 -89c-29,21 -49,53 -53,89zm-277 -224l-6 17 180 190c4,-1 7,-2 11,-2l63 -205 -248 0zm-42 125l-41 121c-3,9 -13,14 -22,11 -9,-3 -13,-13 -10,-22l41 -121c-42,-8 -86,5 -116,36 -50,50 -50,132 0,181 80,81 219,24 219,-90 0,-50 -28,-94 -71,-116z"/></g><text x="0" y="862" fill="#333333" font-size="5px" font-weight="bold" font-family="'Helvetica Neue', Helvetica, Arial-Unicode, Arial, Sans-serif"></text><text x="0" y="867" fill="#333333" font-size="5px" font-weight="bold" font-family="'Helvetica Neue', Helvetica, Arial-Unicode, Arial, Sans-serif"></text></svg>