<svg xmlns="http://www.w3.org/2000/svg" xmlns:xlink="http://www.w3.org/1999/xlink" version="1.1" x="0px" y="0px" viewBox="0 0 80 100" style="enable-background:new 0 0 80 80;" xml:space="preserve"><g><path d="M47.7803,36.728l4.9727-2.4863C54.7559,33.2402,56,31.2271,56,28.9873V19h3c0.5527,0,1-0.4478,1-1v-5   c0-0.5522-0.4473-1-1-1H21c-0.5527,0-1,0.4478-1,1v5c0,0.5522,0.4473,1,1,1h3v9.9873c0,2.2397,1.2441,4.2529,3.2471,5.2544   l4.9727,2.4863C33.3174,37.2769,34,38.3809,34,39.6084v0.7832c0,1.2275-0.6826,2.3315-1.7803,2.8804l-4.9727,2.4863   C25.2441,46.7598,24,48.7729,24,51.0127V61h-3c-0.5527,0-1,0.4478-1,1v5c0,0.5522,0.4473,1,1,1h38c0.5527,0,1-0.4478,1-1v-5   c0-0.5522-0.4473-1-1-1h-3v-9.9873c0-2.2397-1.2441-4.2529-3.2471-5.2544l-4.9727-2.4863C46.6826,42.7231,46,41.6191,46,40.3916   v-0.7832C46,38.3809,46.6826,37.2769,47.7803,36.728z M22,14h36v3h-3H25h-3V14z M58,66H22v-3h3h30h3V66z M46.8857,45.061   l4.9727,2.4863C53.1797,48.2075,54,49.5356,54,51.0127V61H26v-9.9873c0-1.4771,0.8203-2.8052,2.1416-3.4653l4.9727-2.4863   C34.8945,44.1709,36,42.3818,36,40.3916v-0.7832c0-1.9902-1.1055-3.7793-2.8857-4.6694l-4.9727-2.4863   C26.8203,31.7925,26,30.4644,26,28.9873V19h28v9.9873c0,1.4771-0.8203,2.8052-2.1416,3.4653l-4.9727,2.4863   C45.1055,35.8291,44,37.6182,44,39.6084v0.7832C44,42.3818,45.1055,44.1709,46.8857,45.061z"/><path d="M44.8496,33.29l3.8604-1.72c0.6797-0.3,1.1396-0.9102,1.2598-1.6201C49.9902,29.83,50,29.71,50,29.59V29   c-1.54-1.3401-4.7695-3.41-9-2c-3.3398,1.11-5.1299,1.9099-6.9199,2.23c-1.2002,0.22-2.4004,0.22-4.0801-0.05v0.41   c0,0.86,0.5,1.63,1.29,1.9801l3.8604,1.72C37.4902,34.33,39,36.6499,39,39.22v6.96c0,1.77-0.8604,3.42-2.3096,4.4401l-5.5,3.85   C29.8203,55.4299,29,57,29,58.6699V59h22v-0.3301c0-1.6699-0.8203-3.24-2.1904-4.2l-5.5-3.85C41.8604,49.6,41,47.95,41,46.1799   v-6.96C41,36.6499,42.5098,34.33,44.8496,33.29z"/></g><text x="0" y="95" fill="#333333" font-size="5px" font-weight="bold" font-family="'Helvetica Neue', Helvetica, Arial-Unicode, Arial, Sans-serif"></text><text x="0" y="100" fill="#333333" font-size="5px" font-weight="bold" font-family="'Helvetica Neue', Helvetica, Arial-Unicode, Arial, Sans-serif"></text></svg>