<svg xmlns="http://www.w3.org/2000/svg" xmlns:xlink="http://www.w3.org/1999/xlink" version="1.1" x="0px" y="0px" viewBox="4.73 68.151 65.385 91.50375" enable-background="new 4.73 68.151 65.385 73.203" xml:space="preserve"><path d="M26.083,81.404l24.136-0.03l-0.001,5.188l4.132-4.132v-4.959c-0.123-2.789-2.491-4.973-5.392-4.973H27.223  c-2.917,0-5.288,2.243-5.288,5.002v4.932l4.15,4.149L26.083,81.404z"/><path d="M50.206,126.158l-24.11,0.03l-0.001-3.925l-4.16,4.159v4.928c0,2.76,2.371,5.003,5.288,5.003h21.735  c2.9,0,5.269-2.185,5.393-5.003v-4.927l-4.145-4.144V126.158z M38.225,133.128c-1.014,0-1.838-0.824-1.838-1.838  c0-1.015,0.824-1.838,1.838-1.838c1.014,0,1.839,0.823,1.839,1.838C40.063,132.304,39.238,133.128,38.225,133.128z"/><polygon points="50.213,98.143 50.21,110.706 54.351,114.847 54.35,94.006 "/><polygon points="21.935,94.009 21.935,114.846 26.092,110.689 26.087,98.161 "/><polygon points="69.491,76.937 65.631,73.077 38.142,100.568 10.649,73.076 6.791,76.936 34.282,104.428 6.795,131.916   10.654,135.775 38.142,108.285 65.628,135.773 69.487,131.913 42,104.428 "/><text x="4.73" y="156.35399999999998" fill="#333333" font-size="5px" font-weight="bold" font-family="'Helvetica Neue', Helvetica, Arial-Unicode, Arial, Sans-serif"></text><text x="4.73" y="161.35399999999998" fill="#333333" font-size="5px" font-weight="bold" font-family="'Helvetica Neue', Helvetica, Arial-Unicode, Arial, Sans-serif"></text></svg>