<svg xmlns="http://www.w3.org/2000/svg" data-name="Layer 1" viewBox="0 0 100 125" x="0px" y="0px"><title>Conversation icons copy </title><path d="M45.18,50.18a2.49,2.49,0,1,1-2.49,2.49,2.49,2.49,0,0,1,2.49-2.49m0-1.35A3.84,3.84,0,1,0,49,52.67a3.84,3.84,0,0,0-3.84-3.84Z"/><path d="M43.19,58.11a5.13,5.13,0,0,0,4,0,5.72,5.72,0,0,1,3.12,2.82H40.07a5.72,5.72,0,0,1,3.12-2.82m3.9-1.43a.31.31,0,0,0-.13,0,3.84,3.84,0,0,1-3.57,0,.31.31,0,0,0-.13,0h-.07a7.06,7.06,0,0,0-4.65,4.38.9.9,0,0,0,.85,1.21H51a.9.9,0,0,0,.85-1.21,7.06,7.06,0,0,0-4.65-4.38Z"/><rect x="56.98" y="26.3" width="23.83" height="2.03" rx="1.01" ry="1.01"/><path d="M61.86,31.8H58a1,1,0,0,0-1,1h0a1,1,0,0,0,1,1H79.8a1,1,0,0,0,1-1h0a1,1,0,0,0-1-1Z"/><path d="M68.22,16.33C57.78,16.33,49,22,47,29.54H32.91a5.73,5.73,0,0,0-5.72,5.73V77.94a5.73,5.73,0,0,0,5.72,5.73h24.4A5.74,5.74,0,0,0,63,77.94V49.16a27.65,27.65,0,0,0,5.18.48C80.2,49.64,90,42.17,90,33S80.2,16.33,68.22,16.33ZM51.09,51.26a1.44,1.44,0,0,0,.87.29,1.39,1.39,0,0,0,.65-.16l4-2.09V68.82a.28.28,0,0,1-.28.27H33.92a.28.28,0,0,1-.28-.27V36.27a.28.28,0,0,1,.28-.27H46.85a15.4,15.4,0,0,0,5.09,8l-1.36,5.8A1.44,1.44,0,0,0,51.09,51.26ZM61,77.94a3.7,3.7,0,0,1-3.7,3.7H32.91a3.7,3.7,0,0,1-3.7-3.7V35.27a3.7,3.7,0,0,1,3.7-3.7H46.58A13.36,13.36,0,0,0,46.49,33c0,.31,0,.61,0,.92H33.92a2.37,2.37,0,0,0-2.37,2.36V68.82a2.37,2.37,0,0,0,2.37,2.36H56.31a2.37,2.37,0,0,0,2.37-2.36V48.21l.28-.15c.68.24,1.36.45,2,.64Zm7.21-30.33A26.08,26.08,0,0,1,63,47.09c-.68-.14-1.36-.31-2-.5s-1.18-.37-1.76-.59l-.42-.16-.15.08L56.59,47l-3.72,2,1.34-5.7-.5-.4A13.84,13.84,0,0,1,49,36a11.31,11.31,0,0,1-.38-2.09c0-.31,0-.61,0-.92a11.17,11.17,0,0,1,.1-1.42,10.85,10.85,0,0,1,.46-2c2.09-6.4,9.88-11.18,19.14-11.18,10.86,0,19.7,6.56,19.7,14.63S79.08,47.61,68.22,47.61Z"/><path d="M63,37.3H58a1,1,0,0,0-1,1h0a1,1,0,0,0,1,1H72.5a1,1,0,0,0,1-1h0a1,1,0,0,0-1-1Z"/><path d="M45.11,80a3.43,3.43,0,1,1,3.43-3.42A3.43,3.43,0,0,1,45.11,80Zm0-4.74a1.32,1.32,0,1,0,1.32,1.32A1.32,1.32,0,0,0,45.11,75.25Z"/><text x="0" y="115" fill="#333333" font-size="5px" font-weight="bold" font-family="'Helvetica Neue', Helvetica, Arial-Unicode, Arial, Sans-serif"></text><text x="0" y="120" fill="#333333" font-size="5px" font-weight="bold" font-family="'Helvetica Neue', Helvetica, Arial-Unicode, Arial, Sans-serif"></text></svg>