<svg xmlns="http://www.w3.org/2000/svg" data-name="Layer 1" viewBox="0 0 64 80" x="0px" y="0px"><title>-</title><path d="M31,42V37H29v4H23V33h7a1,1,0,0,0,1-1V22a1,1,0,0,0-1-1H22a1,1,0,0,0-1,1v5h2V23h6v8H22a1,1,0,0,0-1,1V42a1,1,0,0,0,1,1h8A1,1,0,0,0,31,42Z"/><path d="M43,43V21H41V31H35V21H33V32a1,1,0,0,0,1,1h7V43Z"/><polygon points="33 13 33 9 31 9 31 13 31 15 33 15 33 13"/><rect x="20.5" y="12.813" width="2" height="2" transform="translate(-4.026 12.598) rotate(-29.995)"/><rect x="12.813" y="20.5" width="2" height="2" transform="translate(-11.713 22.715) rotate(-60.005)"/><rect x="9" y="31" width="6" height="2"/><rect x="12.813" y="41.5" width="2" height="2" transform="translate(-19.397 12.598) rotate(-29.995)"/><rect x="20.5" y="49.186" width="2" height="2" transform="translate(-32.713 43.718) rotate(-60.005)"/><rect x="31" y="49" width="2" height="6"/><rect x="41.5" y="49.186" width="2" height="2" transform="translate(-19.397 27.968) rotate(-29.995)"/><rect x="49.186" y="41.5" width="2" height="2" transform="translate(-11.711 64.719) rotate(-60.005)"/><rect x="49" y="31" width="6" height="2"/><rect x="49.186" y="20.5" width="2" height="2" transform="translate(-4.027 27.969) rotate(-29.995)"/><rect x="41.5" y="12.813" width="2" height="2" transform="translate(9.29 43.716) rotate(-60.005)"/><path d="M55,12a1,1,0,0,0-1.707-.707L51.37,13.216A26.982,26.982,0,1,0,59,32V31H57v1a25.042,25.042,0,1,1-7.044-17.37l-2.663,2.663A1,1,0,0,0,48,19h6a1,1,0,0,0,1-1Zm-2,5H50.414L53,14.414Z"/><text x="0" y="79" fill="#333333" font-size="5px" font-weight="bold" font-family="'Helvetica Neue', Helvetica, Arial-Unicode, Arial, Sans-serif"></text><text x="0" y="84" fill="#333333" font-size="5px" font-weight="bold" font-family="'Helvetica Neue', Helvetica, Arial-Unicode, Arial, Sans-serif"></text></svg>